<svg width="85" height="110" viewBox="0 0 85 110" fill="none" xmlns="http://www.w3.org/2000/svg">
<path d="M85 19.3721C85 8.69026 76.1376 0 65.2441 0C56.6176 0 49.2658 5.45023 46.5792 13.0233H7.4707C3.35136 13.0233 0 16.3095 0 20.3488V102.674C0 106.714 3.35136 110 7.4707 110H69.3945C73.5139 110 76.8652 106.714 76.8652 102.674V35.0278C81.7921 31.5016 85 25.7978 85 19.3721ZM65.2441 4.88372C73.3914 4.88372 80.0195 11.3831 80.0195 19.3721C80.0195 27.361 73.3914 33.8605 65.2441 33.8605C57.0969 33.8605 50.4688 27.361 50.4688 19.3721C50.4688 11.3831 57.0969 4.88372 65.2441 4.88372ZM71.8848 102.674C71.8848 104.021 70.7676 105.116 69.3945 105.116H7.4707C6.09759 105.116 4.98047 104.021 4.98047 102.674V20.3488C4.98047 19.0024 6.09759 17.907 7.4707 17.907H45.5446C45.5075 18.3908 45.4883 18.8793 45.4883 19.3721C45.4883 30.0539 54.3507 38.7442 65.2441 38.7442C67.573 38.7442 69.8084 38.3458 71.8848 37.617V102.674Z" fill="#C4C4C4"/>
<path d="M60.3605 24.3711C60.7363 25.1082 61.466 25.6096 62.3007 25.7047C62.3968 25.7154 62.4926 25.7209 62.5881 25.7209C63.322 25.7209 64.0248 25.4025 64.5009 24.8424L71.1415 17.0284C72.0219 15.9924 71.8791 14.4527 70.8226 13.5893C69.7663 12.726 68.1959 12.866 67.3154 13.902L63.1123 18.8477L62.1589 16.9779C61.5438 15.7717 60.0479 15.2825 58.8178 15.8859C57.5877 16.4889 57.0891 17.9558 57.7042 19.1619L60.3605 24.3711Z" fill="#C4C4C4"/>
<circle cx="65" cy="19" r="17" fill="#ED1631"/>
<path d="M60.4999 15.25H64.0356V8.57143C64.0356 7.704 64.7381 7 65.6071 7C66.4761 7 67.1785 7.704 67.1785 8.57143V15.25H70.7142C71.7655 15.25 72.2888 16.5229 71.5471 17.2614L66.4399 22.3686C66.2105 22.5996 65.9088 22.7143 65.6071 22.7143C65.3053 22.7143 65.0036 22.5996 64.7742 22.3686L59.6671 17.2614C58.9253 16.5229 59.4486 15.25 60.4999 15.25Z" fill="white"/>
<path d="M73.4642 28.9999H57.7499C56.8809 28.9999 56.1785 28.2959 56.1785 27.4284C56.1785 26.561 56.8809 25.857 57.7499 25.857H73.4642C74.3332 25.857 75.0356 26.561 75.0356 27.4284C75.0356 28.2959 74.3332 28.9999 73.4642 28.9999Z" fill="white"/>
</svg>
