<svg width="31" height="42" viewBox="0 0 31 42" fill="none" xmlns="http://www.w3.org/2000/svg">
<path d="M18.3182 0H12.6818C11.9036 0 11.2727 0.571293 11.2727 1.2761V11.4849C11.2727 12.1897 11.9036 12.761 12.6818 12.761H18.3182C19.8746 12.761 21.1364 11.6183 21.1364 10.2088V2.5522C21.1364 1.14267 19.8746 0 18.3182 0ZM18.3182 10.2088H14.0909V2.5522H18.3182V10.2088Z" fill="#EC1630"/>
<path d="M31 2.5522V0H23.9545C23.1763 0 22.5454 0.571293 22.5454 1.2761V12.761H25.3636V7.65659H31V5.10439H25.3636V2.5522H31Z" fill="#EC1630"/>
<path d="M7.04545 0H1.40909C0.630832 0 0 0.571293 0 1.2761V12.761H2.81818V8.93269H7.04545C8.60188 8.93269 9.86364 7.79002 9.86364 6.38049V2.5522C9.86364 1.14267 8.60188 0 7.04545 0ZM7.04545 6.38049H2.81818V2.5522H7.04545V6.38049Z" fill="#EC1630"/>
<path d="M16.8 42H0.474391V38.7805L8.17916 30.6179C9.237 29.4688 10.0167 28.4661 10.5184 27.6098C11.031 26.7534 11.2872 25.9404 11.2872 25.1707C11.2872 24.1192 11.0201 23.2954 10.4857 22.6992C9.95131 22.0921 9.18793 21.7886 8.19552 21.7886C7.12678 21.7886 6.2816 22.1572 5.65998 22.8943C5.04927 23.6206 4.74391 24.5799 4.74391 25.7724H0C0 24.3306 0.343525 23.0136 1.03057 21.8211C1.72853 20.6287 2.71003 19.6965 3.97507 19.0244C5.24012 18.3415 6.6742 18 8.27731 18C10.7311 18 12.6341 18.5854 13.9864 19.7561C15.3496 20.9268 16.0312 22.5799 16.0312 24.7154C16.0312 25.8862 15.7258 27.0786 15.1151 28.2927C14.5044 29.5068 13.4574 30.9214 11.9743 32.5366L6.55969 38.2114H16.8V42Z" fill="#EC1630"/>
</svg>
